#!OML:ASF F:\VICON\USERDATA\INSTALL\rory3\rory3.ASF
:FULLY-SPECIFIED
:DEGREES
713
root 0.962723 15.5637 3.09174 8.1902 -37.917 12.5177
lowerback -0.979501 4.45947 5.6878
upperback 2.70669 5.79538 -0.448856
thorax 3.96663 3.05335 -3.34721
lowerneck 3.27815 -8.88378 -15.1778
upperneck 48.344 -16.945 7.354
head 21.3455 -9.03381 3.9166
rclavicle -5.80451e-014 2.22639e-014
rhumerus -26.0862 26.2007 -97.9996
rradius 19.0233
rwrist 15.8606
rhand -28.0229 -56.3678
rfingers 7.12502
rthumb -1.40802 -86.3429
lclavicle -5.80451e-014 2.22639e-014
lhumerus -54.7091 -79.4356 131.09
lradius 83.2965
lwrist 26.0166
lhand 5.05871 -19.0774
lfingers 7.12502
lthumb 30.426 8.43193
rfemur -31.8666 -3.16596 -3.96711
rtibia 76.8252
rfoot -4.08388 -12.4437
rtoes -35.0722
lfemur -52.8333 -22.9227 -29.4449
ltibia 58.5697
lfoot -20.3232 -4.00081
ltoes 16.2153
714
root 0.963242 15.5604 3.08635 8.1951 -37.9051 12.5347
lowerback -0.976276 4.44454 5.6799
upperback 2.70647 5.7766 -0.466482
thorax 3.96364 3.04411 -3.36258
lowerneck 3.09494 -8.8777 -15.0467
upperneck 48.441 -16.9228 7.29461
head 21.4437 -9.00186 3.85871
rclavicle -4.77083e-015 -2.70347e-014
rhumerus -26.1334 26.2456 -98.0329
rradius 19.2066
rwrist 15.6983
rhand -27.67 -56.6344
rfingers 7.12502
rthumb -1.0672 -86.6115
lclavicle -4.77083e-015 -2.70347e-014
lhumerus -54.5343 -79.4702 130.903
lradius 83.2701
lwrist 26.0044
lhand 4.86864 -19.1228
lfingers 7.12502
lthumb 30.2447 8.41991
rfemur -31.924 -3.1978 -3.97223
rtibia 76.8409
rfoot -4.67627 -12.2554
rtoes -36.1062
lfemur -52.8033 -22.8788 -29.5302
ltibia 58.5352
lfoot -20.4149 -3.6208
ltoes 15.3294
715
root 0.964485 15.5674 3.08738 8.1511 -37.9531 12.6125
lowerback -0.878783 4.77339 5.84899
upperback 2.8282 6.22502 -0.777279
thorax 4.13926 3.286 -3.74665
lowerneck 2.84832 -9.24541 -14.3431
upperneck 48.0908 -17.6328 7.6494
head 21.3406 -9.09704 3.75862
rclavicle 1.27222e-014 -7.95139e-015
rhumerus -25.4601 24.6814 -97.6544
rradius 19.0165
rwrist 16.3011
rhand -27.5051 -56.794
rfingers 7.12502
rthumb -0.907944 -86.7718
lclavicle 1.27222e-014 -7.95139e-015
lhumerus -56.8599 -80.6729 133.167
lradius 83.2953
lwrist 26.1215
lhand 4.68978 -19.1727
lfingers 7.12502
lthumb 30.074 8.40111
rfemur -31.9361 -3.22767 -4.06787
rtibia 76.7973
rfoot -4.49437 -12.2483
rtoes -34.9331
lfemur -52.8109 -22.8403 -29.639
ltibia 58.5227
lfoot -20.3846 -3.81591
ltoes 16.9932
716
root 0.964031 15.5755 3.09149 8.1038 -38.0399 12.6616
lowerback -0.589516 5.5837 6.14233
upperback 3.1766 7.33341 -1.4163
thorax 4.59744 3.88272 -4.49084
lowerneck 2.23401 -10.3159 -12.4905
upperneck 47.6961 -19.5177 7.95235
head 21.3566 -9.41577 3.16682
rclavicle -8.26944e-014 -6.36111e-015
rhumerus -23.6997 20.8642 -96.7264
rradius 18.4759
rwrist 17.7194
rhand -27.6768 -56.5403
rfingers 7.12502
rthumb -1.07373 -86.5174
lclavicle -8.26944e-014 -6.36111e-015
lhumerus -65.2333 -83.5861 141.438
lradius 83.4466
lwrist 26.5458
lhand 4.77132 -19.2501
lfingers 7.12502
lthumb 30.1518 8.30954
rfemur -31.8848 -3.20503 -4.15952
rtibia 76.7349
rfoot -4.3609 -12.1114
rtoes -33.819
lfemur -52.8118 -22.8735 -29.624
ltibia 58.4962
lfoot -20.2743 -4.08648
ltoes 18.4889
717
root 0.962672 15.5758 3.09129 8.06522 -38.1036 12.6682
lowerback -0.583966 5.58012 6.16032
upperback 3.20505 7.32937 -1.45308
thorax 4.63137 3.88391 -4.53783
lowerneck 2.20814 -10.2688 -12.3949
upperneck 47.6402 -19.4393 7.96128
head 21.2771 -9.36808 3.16798
rclavicle -7.23576e-014 -1.59028e-014
rhumerus -23.5473 20.7089 -96.7509
rradius 18.3308
rwrist 17.8763
rhand -28.1033 -55.8206
rfingers 7.12502
rthumb -1.48565 -85.7952
lclavicle -7.23576e-014 -1.59028e-014
lhumerus -64.6114 -83.5897 140.737
lradius 83.4106
lwrist 26.5008
lhand 5.18893 -19.3467
lfingers 7.12502
lthumb 30.5502 8.13954
rfemur -31.8632 -3.18949 -4.18451
rtibia 76.7252
rfoot -4.42676 -12.0111
rtoes -33.8131
lfemur -52.769 -22.9273 -29.528
ltibia 58.4742
lfoot -20.1774 -4.24261
ltoes 18.5549
718
root 0.962607 15.5735 3.08592 8.05678 -38.0884 12.6665
lowerback -0.852234 4.71869 5.86088
upperback 2.84133 6.15574 -0.847669
thorax 4.13959 3.25392 -3.83238
lowerneck 2.92515 -9.0314 -14.2994
upperneck 47.8884 -17.3576 7.8644
head 21.1072 -8.97074 3.91741
rclavicle -4.69132e-014 1.90833e-014
rhumerus -25.2456 24.3158 -97.7101
rradius 18.6986
rwrist 16.8309
rhand -28.474 -55.2904
rfingers 7.12502
rthumb -1.84374 -85.2621
lclavicle -4.69132e-014 1.90833e-014
lhumerus -55.7341 -80.4021 131.91
lradius 83.1414
lwrist 25.9435
lhand 6.08006 -19.332
lfingers 7.12502
lthumb 31.3996 7.99256
rfemur -31.9217 -3.24619 -4.15101
rtibia 76.7654
rfoot -4.49267 -12.0618
rtoes -34.8235
lfemur -52.7604 -22.8923 -29.5043
ltibia 58.4852
lfoot -20.1812 -4.27212
ltoes 17.7713
719
root 0.962878 15.5706 3.07897 8.07573 -38.1019 12.625
lowerback -0.745749 4.72153 5.83978
upperback 2.78868 6.1665 -0.81304
thorax 4.01905 3.25387 -3.79658
lowerneck 2.94749 -8.97094 -14.3363
upperneck 47.8541 -17.3184 8.00339
head 21.1007 -8.95275 4.00658
rclavicle 1.1291e-013 -9.54166e-015
rhumerus -25.3394 24.0454 -97.6477
rradius 18.7901
rwrist 16.938
rhand -28.4945 -55.3276
rfingers 7.12502
rthumb -1.86352 -85.2992
lclavicle 1.1291e-013 -9.54166e-015
lhumerus -55.7946 -80.2784 132.055
lradius 83.0827
lwrist 25.8212
lhand 6.6566 -19.4001
lfingers 7.12502
lthumb 31.9488 7.81609
rfemur -32.0117 -3.22182 -4.07668
rtibia 76.827
rfoot -4.77105 -12.0819
rtoes -36.0945
lfemur -52.807 -22.7129 -29.5166
ltibia 58.5323
lfoot -20.2547 -4.25782
ltoes 17.0169
